<svg viewBox="0 0 1085.63 226.35" xmlns="http://www.w3.org/2000/svg" id="Layer_1"><path d="M760.39,58.39v28.93c27.37-.56,52.49-2.79,73.09-5.34v65.93c-20.6-2.55-45.72-4.77-73.09-5.34v28.93c28.04-.58,53.71-2.9,74.59-5.53v60.36h-149.26S685.72,0,685.72,0h152.29v64.3c-21.4-2.78-48.21-5.3-77.62-5.91ZM195.17,226.34h74.69V0h-74.69v226.34ZM1067.93,1.68c-1.56.62-2.91,1.47-4.04,2.56-1.13,1.08-2.02,2.37-2.65,3.85s-.96,3.08-.96,4.81.32,3.32.96,4.81,1.52,2.77,2.65,3.85c1.13,1.08,2.48,1.94,4.04,2.56,1.56.62,3.25.93,5.07.93s3.45-.31,5-.93c1.55-.62,2.88-1.47,4.02-2.56,1.13-1.08,2.02-2.37,2.65-3.85s.96-3.08.96-4.81-.32-3.32-.96-4.81-1.52-2.77-2.65-3.85c-1.13-1.08-2.47-1.94-4.02-2.56-1.55-.62-3.21-.93-5-.93s-3.51.31-5.07.93ZM1068.72,22.37c-1.29-.51-2.4-1.22-3.32-2.13-.93-.91-1.65-1.98-2.18-3.23-.53-1.24-.79-2.61-.79-4.11s.26-2.83.79-4.09c.53-1.26,1.25-2.34,2.18-3.25.92-.91,2.03-1.62,3.32-2.13s2.7-.77,4.23-.77,2.93.26,4.21.77,2.38,1.22,3.32,2.13c.94.91,1.67,1.99,2.2,3.25.53,1.26.79,2.62.79,4.09s-.26,2.87-.79,4.11c-.53,1.24-1.26,2.32-2.2,3.23-.94.91-2.05,1.62-3.32,2.13s-2.68.76-4.21.76-2.94-.25-4.23-.76ZM1077.21,6.75c-.86-.78-1.96-1.17-3.3-1.17h-6.26v14.63h2.96v-5.4h2.63l2.68,5.4h3.3l-2.96-5.93c.7-.35,1.25-.87,1.65-1.55s.6-1.54.6-2.56c0-1.5-.43-2.64-1.29-3.42ZM1070.61,12.37v-4.35h2.49c.67,0,1.23.17,1.67.5s.67.88.67,1.65-.22,1.36-.67,1.7c-.45.33-1,.5-1.67.5h-2.49ZM476.93,113.17c0,62.5-26.16,113.17-58.44,113.17h-134.21V0h134.21c32.27,0,58.44,50.67,58.44,113.17ZM379.6,177.02s16.07-28.6,16.07-63.85-16.05-63.83-16.07-63.85h0s0,0,0,0h0s-16.07,28.59-16.07,63.85,16.07,63.85,16.07,63.85h0ZM676.94,113.17c0,62.5-26.16,113.17-58.44,113.17h0s-132.31,0-132.31,0V0h132.31s0,0,0,0c32.27,0,58.44,50.67,58.44,113.17ZM597.64,113.17c0-35.27-16.07-63.85-16.07-63.85,0,0-.02.03-.03.06-.01-.03-.03-.06-.03-.06,0,0-.23.45-.63,1.31-3.09,5.98-15.37,31.71-15.37,62.54s12.29,56.57,15.37,62.54c.4.86.63,1.31.63,1.31,0,0,.02-.03.03-.06.02.03.03.06.03.06,0,0,16.07-28.59,16.07-63.85ZM968.17,0c7.47,39.57,7.48,74.85,6.81,92.46h-6.48c-7.81-16.98-21.7-50.67-29.81-91.01-.1-.48-.19-.97-.29-1.45h-86.3v226.34h76.73c-7.52-39.84-7.48-75.32-6.8-92.81h6.3c7.78,16.87,21.8,50.74,29.98,91.36.1.48.19.97.29,1.45h85.89V0h-76.32ZM95.67,0c3.18,19.65,6.92,48.16,8.52,81.08h-27.63C78.16,48.16,81.89,19.65,85.07,0H0v226.34h85.08c-3.38-20.84-7.37-51.64-8.78-87.11h28.16c-1.41,35.46-5.41,66.27-8.78,87.11h85.08V0h-85.07Z"></path></svg>